<svg xmlns="http://www.w3.org/2000/svg" viewBox="0 0 400 400"><defs><style>.cls-1{fill:#3e8989;}</style></defs><title>BryanNilsens</title><g id="Layer_2" data-name="Layer 2"><polygon class="cls-1" points="109.66 268.94 88.58 283.72 88.54 283.62 104.29 261.3 100.92 256.48 65.99 281 69.47 285.99 90.49 271.25 90.57 271.35 74.9 293.75 78.23 298.45 113.16 273.95 109.66 268.94"/><polygon class="cls-1" points="120.48 281.16 91.42 312.39 95.9 316.57 124.96 285.32 120.48 281.16"/><polygon class="cls-1" points="133.25 292.27 110.79 328.58 126.3 338.15 129.52 332.94 119.22 326.58 138.45 295.49 133.25 292.27"/><path class="cls-1" d="M169,309.82a10.27,10.27,0,0,0-3.68-2.09,10.75,10.75,0,0,0-4.73-.55,9.37,9.37,0,0,0-3.81,1.38,10.32,10.32,0,0,0-3,2.94,16.69,16.69,0,0,0-2.79,10.9c.32,2,1.54,3.87,3.73,5.72l3.58,3.06a11.48,11.48,0,0,1,1.48,1.4,3,3,0,0,1,.71,1.37,4.71,4.71,0,0,1-.06,1.81,22.23,22.23,0,0,1-.73,2.65c-.3.91-.59,1.72-.89,2.45a4.58,4.58,0,0,1-1.16,1.75,3.52,3.52,0,0,1-1.68.81,5.43,5.43,0,0,1-2.47-.33,3.84,3.84,0,0,1-2.72-2.31,4.82,4.82,0,0,1,0-3.18l.59-1.82-5.81-1.89-.71,2.17a9.51,9.51,0,0,0-.45,4,10.65,10.65,0,0,0,1.07,3.73,9.9,9.9,0,0,0,2.5,3.08,12.33,12.33,0,0,0,8.71,2.62,8.48,8.48,0,0,0,4-1.48,10.59,10.59,0,0,0,2.88-3.2,23.16,23.16,0,0,0,2-4.6,30.8,30.8,0,0,0,1-4,10.87,10.87,0,0,0,.16-3.38,7.68,7.68,0,0,0-1.13-2.92,12.08,12.08,0,0,0-2.55-2.76l-3.9-3.22a9.55,9.55,0,0,1-1.5-1.48,3.35,3.35,0,0,1-.64-1.4,3.54,3.54,0,0,1,0-1.58c.12-.54.28-1.21.54-2a11.61,11.61,0,0,1,.83-1.91,4.12,4.12,0,0,1,2.72-2.23,3.77,3.77,0,0,1,2.09.17,3.65,3.65,0,0,1,2.69,2.47,6.44,6.44,0,0,1-.16,3.77l-.43,1.29,5.8,1.91,1-2.86a9.32,9.32,0,0,0-.6-7.11A10.14,10.14,0,0,0,169,309.82Z"/><polygon class="cls-1" points="179.63 355.13 197.81 356.57 198.3 350.47 186.2 349.52 187.21 337.01 197.73 337.87 198.18 332.11 187.68 331.28 188.65 318.8 200.73 319.75 201.18 314.01 183.02 312.57 179.63 355.13"/><polygon class="cls-1" points="223.59 311.18 227.95 336.53 227.8 336.57 214.37 312.78 208.59 313.75 215.79 355.82 221.83 354.81 217.49 329.5 217.61 329.48 231.15 353.19 236.84 352.23 229.63 310.16 223.59 311.18"/><path class="cls-1" d="M269.45,326.64a28.9,28.9,0,0,0-2-3.69,10.37,10.37,0,0,0-2.16-2.59,7.28,7.28,0,0,0-2.8-1.38,11.89,11.89,0,0,0-3.77-.31l-5,.27a9.81,9.81,0,0,1-2.12-.08,3.33,3.33,0,0,1-1.42-.61,4,4,0,0,1-1-1.18,18.27,18.27,0,0,1-.95-1.86,11.4,11.4,0,0,1-.69-1.95,5.58,5.58,0,0,1-.16-1.88,3.91,3.91,0,0,1,.67-1.62,3.72,3.72,0,0,1,1.64-1.3,3.67,3.67,0,0,1,3.67,0,6.47,6.47,0,0,1,2.41,2.88l.57,1.25,5.57-2.55-1.26-2.71a9.3,9.3,0,0,0-5.25-4.87,11.5,11.5,0,0,0-3.91-.65,10.17,10.17,0,0,0-4.11,1,10.59,10.59,0,0,0-3.85,2.77,9.65,9.65,0,0,0-1.89,3.61,10.43,10.43,0,0,0-.24,4.19,15.21,15.21,0,0,0,1.3,4.42,14.58,14.58,0,0,0,4,5.51c1.56,1.24,3.75,1.81,6.61,1.71l4.72-.21a15.63,15.63,0,0,1,2.05.06,3.68,3.68,0,0,1,1.46.53,4.88,4.88,0,0,1,1.15,1.38,24.41,24.41,0,0,1,1.26,2.45c.4.87.73,1.68,1,2.41a4.52,4.52,0,0,1,.32,2.05,3.14,3.14,0,0,1-.69,1.74,5.21,5.21,0,0,1-2,1.42A3.8,3.8,0,0,1,259,337a5,5,0,0,1-2.17-2.33l-.81-1.76-5.55,2.55,1,2.07a9.78,9.78,0,0,0,2.39,3.3,10.43,10.43,0,0,0,3.35,2,9.78,9.78,0,0,0,3.89.59,11,11,0,0,0,4.07-1,12.1,12.1,0,0,0,4.14-2.93,8.62,8.62,0,0,0,1.88-3.79,10.76,10.76,0,0,0,0-4.3A22,22,0,0,0,269.45,326.64Z"/><path class="cls-1" d="M176,89c3.93-.79,6.56-2.35,7.94-4.66s1.72-5.31.95-9l-.46-2.37a11.8,11.8,0,0,0-2.07-5.07,6.74,6.74,0,0,0-3.73-2.31,8,8,0,0,0,2.49-3.45,6.53,6.53,0,0,0,.39-2.2,12.38,12.38,0,0,0-.33-2.94l-.3-1.52a14.2,14.2,0,0,0-1.36-3.85,9.11,9.11,0,0,0-2.53-3,9.23,9.23,0,0,0-3.79-1.68,12.32,12.32,0,0,0-5.11.1l-8.73,1.78,8.47,41.83Zm1.09-18.75a5.1,5.1,0,0,1,1.11,1.85,18.8,18.8,0,0,1,.75,2.73c.19,1,.33,2,.45,2.84a5.73,5.73,0,0,1-.2,2.37,3.66,3.66,0,0,1-1.28,1.78,6.47,6.47,0,0,1-2.71,1.1l-2.6.52L169.89,70l2.63-.53a7.86,7.86,0,0,1,2.74-.16A3.48,3.48,0,0,1,177.08,70.22ZM169,52.73c2-.42,3.47-.22,4.42.57a6.63,6.63,0,0,1,2,4,7.89,7.89,0,0,1-.12,4.6c-.49,1.14-1.73,1.93-3.73,2.31l-2.7.55-2.33-11.51Z"/><path class="cls-1" d="M204,68.21l3.65.23L212.24,87l6.46.41-5.41-19.86a9.05,9.05,0,0,0,4.36-4,15.84,15.84,0,0,0,1.56-6.34c.51-8.33-2.84-12.73-10-13.15l-9.83-.59L196.8,86l6.12.36Zm1.12-18.68,3.18.2c2.11.12,3.5.77,4.19,1.93a5.44,5.44,0,0,1,.61,2.17,22.5,22.5,0,0,1,0,2.85,20.69,20.69,0,0,1-.34,2.84,6.44,6.44,0,0,1-.79,2,3.54,3.54,0,0,1-1.56,1.21,6.21,6.21,0,0,1-2.62.29l-3.46-.21Z"/><polygon class="cls-1" points="235.97 92.25 241.22 74.98 256.4 53.83 250.18 51.96 240.57 66.76 240.45 66.73 240.67 49.06 234.47 47.2 235.36 73.2 230.11 90.49 235.97 92.25"/><path class="cls-1" d="M250.66,98.17l6.08-7.1L264,95.15,261.06,104l5.33,3,12.66-41.85-4.43-2.51L245.35,95.15Zm20.07-23.59.1.06-5,14.93-5.33-3Z"/><polygon class="cls-1" points="275.73 115.25 293.61 96.85 293.69 96.93 282.52 121.84 286.65 125.85 316.38 95.23 311.99 90.97 294.07 109.43 294.01 109.33 305.3 84.45 301.08 80.35 271.33 111 275.73 115.25"/><path class="cls-1" d="M200,5.45C92.55,5.45,5.45,92.55,5.45,200S92.55,394.55,200,394.55,394.55,307.45,394.55,200,307.45,5.45,200,5.45Zm126.25,320.8A178.54,178.54,0,1,1,73.75,73.75,178.55,178.55,0,0,1,378.55,200a180,180,0,0,1-2.48,29.83l-5.82-.54c-30.62-2.88-46.9,6.29-46.9,6.29V218.32l.13-.21V192.94a5.62,5.62,0,0,0-2-4.34,7.82,7.82,0,0,0-5.42-1.78,4.69,4.69,0,0,0-2.55.67,2,2,0,0,0-1.08,1.68,5,5,0,0,0,.3,1.62,9.08,9.08,0,0,1,.31,2.82v15.53a40.18,40.18,0,0,1-1.11,4.34,19,19,0,0,1-1.85,4.14,12,12,0,0,1-2.69,3.13,5.61,5.61,0,0,1-3.63,1.24,6.64,6.64,0,0,1-5.72-3,13.75,13.75,0,0,1-2.07-7.64l.12-.43a2.17,2.17,0,0,0,.14-.61V210a5,5,0,0,0-.23-1.37,34,34,0,0,1,2-10.84,27.49,27.49,0,0,1,5.35-8.94,21.28,21.28,0,0,1,7.29-5.25,20.26,20.26,0,0,1,7.94-1.71,15.59,15.59,0,0,1,2.08.13,14.91,14.91,0,0,0,1.95.14,1.4,1.4,0,0,0,1.38-.71,5.69,5.69,0,0,0,.37-2.45,5.33,5.33,0,0,0-1.75-4.27,6.72,6.72,0,0,0-4.57-1.52,30.38,30.38,0,0,0-12.2,2.56,31.78,31.78,0,0,0-10.46,7.36,36.52,36.52,0,0,0-7.33,11.67,41.13,41.13,0,0,0-2.76,15.47,31.87,31.87,0,0,0,.56,6.05c-.25.62-.5,1.23-.79,1.82a13.65,13.65,0,0,1-2.63,3.69,5,5,0,0,1-3.59,1.48,2.62,2.62,0,0,1-2.06-.8,5.28,5.28,0,0,1-1-1.89,8.91,8.91,0,0,1-.4-2.11c0-.7-.07-1.2-.07-1.52V188.5a24.79,24.79,0,0,0-.5-4.84,13.24,13.24,0,0,0-1.79-4.51,9.87,9.87,0,0,0-3.49-3.29,11.22,11.22,0,0,0-5.65-1.28,10.89,10.89,0,0,0-4.74,1,15.55,15.55,0,0,0-4.1,2.89,26,26,0,0,0-3.57,4.34,46.88,46.88,0,0,0-3.06,5.38V182a5.57,5.57,0,0,0-2-4.27A7.85,7.85,0,0,0,241,176a4.88,4.88,0,0,0-2.55.64,1.88,1.88,0,0,0-1.08,1.65,4.76,4.76,0,0,0,.31,1.61,9.55,9.55,0,0,1,.3,2.83v23.9a9.3,9.3,0,0,0-.54,1.85c-.31,1.53-.72,3.15-1.21,4.88a27.76,27.76,0,0,1-1.85,4.81,13.62,13.62,0,0,1-2.62,3.69,4.89,4.89,0,0,1-3.53,1.48,2.73,2.73,0,0,1-2.09-.8,4.92,4.92,0,0,1-1.07-1.89,8.94,8.94,0,0,1-.41-2.11c0-.7-.06-1.2-.06-1.52V182a5.58,5.58,0,0,0-2-4.27,7.82,7.82,0,0,0-5.41-1.78,4.89,4.89,0,0,0-2.56.64,1.89,1.89,0,0,0-1.07,1.65,5,5,0,0,0,.3,1.61,9.55,9.55,0,0,1,.3,2.83V219.5a15.74,15.74,0,0,0,.78,5,12,12,0,0,0,2.25,4.1,11.05,11.05,0,0,0,3.63,2.79,11.17,11.17,0,0,0,4.91,1,14.12,14.12,0,0,0,7.73-2.08,21,21,0,0,0,4.51-3.85,6.46,6.46,0,0,0,.64,3,4.83,4.83,0,0,0,1.61,1.81,6.07,6.07,0,0,0,2.15.88,11.83,11.83,0,0,0,2.19.23,3.75,3.75,0,0,0,2.25-.57,3.37,3.37,0,0,0,1.14-1.41,4.93,4.93,0,0,0,.41-1.88c0-.7,0-1.38,0-2.06v-20.1a30.57,30.57,0,0,1,2-8.17,39.8,39.8,0,0,1,3.66-7.3,28,28,0,0,1,4.24-5.25q2.15-2,3.63-2a2,2,0,0,1,1.58.64,4.17,4.17,0,0,1,.87,1.71,11.08,11.08,0,0,1,.37,2.49c.05.94.07,1.95.07,3v28a16,16,0,0,0,.77,5,11.92,11.92,0,0,0,2.29,4.1,11.6,11.6,0,0,0,3.63,2.79,11,11,0,0,0,4.88,1,14.14,14.14,0,0,0,7.73-2.08,21.45,21.45,0,0,0,5.55-5.08,15.11,15.11,0,0,0,5,4.2,15,15,0,0,0,7.1,1.62,13.8,13.8,0,0,0,6.42-1.45,19.49,19.49,0,0,0,4.88-3.53v14.46q-3.44,3-6.53,5.95a41.24,41.24,0,0,0-5.44,6.29,29.41,29.41,0,0,0-3.74,7.4,28.91,28.91,0,0,0-1.37,9.28,19.24,19.24,0,0,0,1,6.18,16,16,0,0,0,2.73,5.05,13,13,0,0,0,4.16,3.39,11.49,11.49,0,0,0,5.32,1.25,14.31,14.31,0,0,0,5.21-1A11.76,11.76,0,0,0,319,281a17.78,17.78,0,0,0,3.26-6.05,29.32,29.32,0,0,0,1.24-9.18V254l-.13.14v-9.77c18.89-10.74,42.39-8.32,51.26-6.87A177.3,177.3,0,0,1,326.25,326.25ZM313.06,251v17.55a20.67,20.67,0,0,1-.31,3.6,9.07,9.07,0,0,1-1.1,3.13,2.72,2.72,0,0,1-2.49,1.34c-1.12,0-2-.73-2.63-2.18a13.89,13.89,0,0,1-.94-5.42,23.89,23.89,0,0,1,2.05-10.42A27.62,27.62,0,0,1,313.06,251Z"/><path class="cls-1" d="M138.6,54.64l-2.73-6.44A164.92,164.92,0,0,0,49.38,266.86l6.4-2.84A157.92,157.92,0,0,1,138.6,54.64Z"/><path class="cls-1" d="M288.2,330.81l3.92,5.8a165.52,165.52,0,0,0,65.28-87.79l-6.69-2.07A158.44,158.44,0,0,1,288.2,330.81Z"/><path class="cls-1" d="M356.87,216.8l7,.74a167.77,167.77,0,0,0,.92-17.54,163.37,163.37,0,0,0-33.05-99l-5.6,4.21A156.36,156.36,0,0,1,357.75,200,161.82,161.82,0,0,1,356.87,216.8Z"/><path class="cls-1" d="M148.57,140.79a6.7,6.7,0,0,0,1.17-2.36,9.1,9.1,0,0,0,.37-2.52,7.92,7.92,0,0,0-.16-1.61,8.57,8.57,0,0,0-.44-1.45,5,5,0,0,0-.61-1.08.88.88,0,0,0-.67-.43.74.74,0,0,0-.44.17,4.64,4.64,0,0,1-.67.37,7.54,7.54,0,0,1-1.11.37,7.24,7.24,0,0,1-1.68.16l-2.79,0c-1.37,0-3,0-4.91,0s-4,0-6.19-.07-4.4-.07-6.55-.07-4.18,0-6.09,0l-4.74,0q-24.75,0-37.42,10.42T63,172.83A36.31,36.31,0,0,0,64.31,183a45,45,0,0,0,3.22,8.31,32.48,32.48,0,0,0,4,6.08,21.75,21.75,0,0,0,3.57,3.53,2.53,2.53,0,0,0,1,.61,4,4,0,0,0,1,.13,4.28,4.28,0,0,0,2.39-.77,9.49,9.49,0,0,0,2.12-2,10.46,10.46,0,0,0,1.51-2.62,7.64,7.64,0,0,0,.57-2.79,2.74,2.74,0,0,0-.47-1.69c-.31-.4-.85-.49-1.61-.26a34.78,34.78,0,0,1-2.73-3.1,23.1,23.1,0,0,1-2.52-4,24.91,24.91,0,0,1-1.85-5.15,26.78,26.78,0,0,1-.71-6.42,34.22,34.22,0,0,1,2.39-13.62,22.82,22.82,0,0,1,6.69-8.91,28.88,28.88,0,0,1,10.29-5.11A64.27,64.27,0,0,1,106.47,143v44.79h-10a1.74,1.74,0,0,0-1.58.8,3.58,3.58,0,0,0-.5,2,7.75,7.75,0,0,0,.37,2.29,8.07,8.07,0,0,0,1,2.22,6.68,6.68,0,0,0,1.58,1.68,3.22,3.22,0,0,0,2,.67h7.13V219.1a25,25,0,0,1-.84,7.63c-.56,1.59-1.47,2.39-2.72,2.39a3.31,3.31,0,0,1-1-.14,5,5,0,0,0-.74-.17.56.56,0,0,0-.47.14,1.33,1.33,0,0,0-.17.84,4.43,4.43,0,0,0,.91,2.35,15.61,15.61,0,0,0,2.29,2.63,16,16,0,0,0,2.92,2.15,5.88,5.88,0,0,0,2.83.87,5.57,5.57,0,0,0,3.12-.94,7.24,7.24,0,0,0,2.46-3,19.44,19.44,0,0,0,1.58-5.24,45.79,45.79,0,0,0,.57-7.8V197.44h15.94a1.86,1.86,0,0,0,1.48-.94,9.89,9.89,0,0,0,1.17-2.25,13.31,13.31,0,0,0,.74-2.79,10.17,10.17,0,0,0,.14-2.56,2,2,0,0,0-.64-1.48c-.36-.27-.9-.13-1.61.41H117.23V142.77c1.43,0,3,.08,4.78.1l5.34.07,5.42.07,4.94.06,3.86.07,2.22,0a5.49,5.49,0,0,0,2.79-.67A6.72,6.72,0,0,0,148.57,140.79Z"/><path class="cls-1" d="M143.06,152.91a8.42,8.42,0,0,0-1.79,2.66,8.3,8.3,0,0,0-.67,3.36,7.86,7.86,0,0,0,.67,3.26,8.89,8.89,0,0,0,1.79,2.66,8.26,8.26,0,0,0,2.62,1.82,7.74,7.74,0,0,0,3.19.67,8.3,8.3,0,0,0,6-2.49,8.6,8.6,0,0,0,1.75-2.66,8.35,8.35,0,0,0,.64-3.26,8.82,8.82,0,0,0-.64-3.36,8.15,8.15,0,0,0-1.75-2.66,7.87,7.87,0,0,0-2.66-1.74,8.63,8.63,0,0,0-3.36-.64,8,8,0,0,0-3.19.64A7.9,7.9,0,0,0,143.06,152.91Z"/><path class="cls-1" d="M211.65,152.91a8.39,8.39,0,0,0-1.78,2.66,8.3,8.3,0,0,0-.68,3.36,7.87,7.87,0,0,0,.68,3.26,8.86,8.86,0,0,0,1.78,2.66,8.38,8.38,0,0,0,2.62,1.82,7.75,7.75,0,0,0,3.2.67,8.26,8.26,0,0,0,6-2.49,8.42,8.42,0,0,0,1.75-2.66,8.17,8.17,0,0,0,.64-3.26,8.63,8.63,0,0,0-.64-3.36,7.84,7.84,0,0,0-4.4-4.4,8.63,8.63,0,0,0-3.36-.64,8.29,8.29,0,0,0-5.82,2.38Z"/><path class="cls-1" d="M156,217V182a5.57,5.57,0,0,0-2-4.27,7.84,7.84,0,0,0-5.41-1.78,4.89,4.89,0,0,0-2.56.64,1.88,1.88,0,0,0-1.08,1.65,4.76,4.76,0,0,0,.31,1.61,9.55,9.55,0,0,1,.3,2.83V219.5a16,16,0,0,0,.77,5,12.19,12.19,0,0,0,2.26,4.1,11,11,0,0,0,3.63,2.79,10.59,10.59,0,0,0,3.76,1Z"/><path class="cls-1" d="M145.64,196.16v32.62a5.05,5.05,0,0,0,2,4,8.16,8.16,0,0,0,5.41,1.66,5.18,5.18,0,0,0,2.56-.6,1.73,1.73,0,0,0,1.07-1.53,4.39,4.39,0,0,0-.3-1.51,8.28,8.28,0,0,1-.3-2.63V193.84a14.09,14.09,0,0,0-.77-4.65,11.09,11.09,0,0,0-2.26-3.82,10.76,10.76,0,0,0-3.63-2.61h0a2.69,2.69,0,0,0-3.73,2.51Z"/><path class="cls-1" d="M206.54,189.68a36.83,36.83,0,0,0-2.93-7.64,21.18,21.18,0,0,0-3.93-5.41,6.27,6.27,0,0,0-4.24-2,3.53,3.53,0,0,0-2,.7,8.8,8.8,0,0,0-1.81,1.75,10,10,0,0,0-1.31,2.22,5.43,5.43,0,0,0-.51,2.12.68.68,0,0,0,.67.71,2.58,2.58,0,0,1,1.22.5c.44.36,1,.83,1.64,1.41a9,9,0,0,1,1.85,2.59,20.47,20.47,0,0,1,1.52,4.47,31.86,31.86,0,0,1,.63,6.93A39.61,39.61,0,0,1,196,208.67a29.82,29.82,0,0,1-3.36,8,16.13,16.13,0,0,1-4.64,5,9.3,9.3,0,0,1-5.15,1.71,2.49,2.49,0,0,1-2.42-1.14,6.68,6.68,0,0,1-.6-3.09V182a5.54,5.54,0,0,0-2-4.27,7.82,7.82,0,0,0-5.41-1.78,4.83,4.83,0,0,0-2.55.64,1.88,1.88,0,0,0-1.08,1.65,5,5,0,0,0,.3,1.61,9.48,9.48,0,0,1,.31,2.83v23.9a3.21,3.21,0,0,0-.12.33v12.39c.37-.41.72,6.43,1.06,6a11.31,11.31,0,0,0,1.61,3.11,9.44,9.44,0,0,0,3.6,2.9,12.92,12.92,0,0,0,5.55,1.07,22.49,22.49,0,0,0,11-2.69,25.8,25.8,0,0,0,8.37-7.33,35,35,0,0,0,5.35-10.82,45.27,45.27,0,0,0,1.88-13.19A33.57,33.57,0,0,0,206.54,189.68Z"/></g></svg>