<svg id="Layer_1" data-name="Layer 1" xmlns="http://www.w3.org/2000/svg" viewBox="0 0 656 94"><defs><style>.cls-1{fill:#24373b;}</style></defs><title>Colin-Branding</title><path class="cls-1" d="M33.46,35.09a6.46,6.46,0,0,0-2.83-.59c-5.67,0-12,5.08-12,19.26,0,14.53,8,25.05,19.85,25.05,5.19,0,8.5-1.18,12.87-4L51.89,76C44.81,83,39.61,86.84,31.34,91.1,15.62,91.1,3.81,80.58,3.81,63.92,3.81,45,18.1,34.39,33.7,31.55c5.55,0,12.52,2.84,17.25,6.38v13H37.6Z"/><path class="cls-1" d="M54.73,62.74c0-19.49,13.82-27.05,30.84-31.19C100.81,31.55,112,43,112,59.79c0,19.49-13.7,27.29-30.95,31.31C66.07,91.1,54.73,79.64,54.73,62.74Zm17.6-4.84c0,19.49,5.56,30,12.41,30,6.14,0,9.69-7.33,9.69-22.92,0-20.32-5.67-30.13-12.41-30.13C75.88,34.86,72.33,42,72.33,57.9Z"/><path class="cls-1" d="M115.81,89.33V87.44l6.15-1V9.93l-6,.83-.35-2.13,21-3.43h1.89V86.49l6.26,1v1.89Z"/><path class="cls-1" d="M146.88,89.33V87.44l6.27-1V37.58l-6.38,1.06-.24-2,21.15-4.49h2V86.49l6.26,1v1.89Zm8-82.47L165.43,6l4,.83.59,7.56-1.3,7.09-10.63.82-3.66-.82-.83-8.15Z"/><path class="cls-1" d="M178.67,89.33V87.44l6.26-1V37.58l-6.38,1.06-.24-2,21.15-4.49h2V44.43l20.79-12.88c6.15,0,8.87,1.42,10.87,3.43,2.72,2.83,3.31,5.43,3.31,13.82V86.49l6.85,1v1.89H214.82V87.44l4.49-1V48.21c0-5.08-1.89-7.09-5.43-7.09s-5.79,1.42-9.22,3.43l-3.19,2V86.49l4.49,1v1.89Z"/><path class="cls-1" d="M298.83,37.69a11.31,11.31,0,0,0-9-3.66c-4.14,0-7.21,2.6-7.21,6.5,0,4.14,2.72,6.38,8.51,10.16l11.57,7.68c6.38,4,8.86,7.92,8.75,13.94,0,8.39-6.26,15.6-20.92,19a50.42,50.42,0,0,1-20.67-4.49V69.24h2l7.2,13.94c3.55,3.31,6.38,5.32,11,5.32,5.55,0,8.63-3.31,8.63-6.85,0-4.61-2.6-6.5-8.51-10.4l-11.46-7.68c-4.84-3.19-9.22-7-9.22-14.3,0-8.15,6.86-14.53,20.68-17.72,8.74,0,13.23,1.3,18.79,3.9V51.87H307.1Z"/><path class="cls-1" d="M341,31.55c11.23,0,15.48,1.18,18.91,4.37,2.71,2.48,4,6.62,4,13.12V74.56a38.25,38.25,0,0,0,1.54,10.28l5.44-.59.23,1.89L350,90.39l-2.83-9.69L331,91.1c-9.33,0-16.89-4.85-16.89-14.65a15.16,15.16,0,0,1,6.49-13l26.11-7.8V45c0-6-.47-9.69-7.32-9.69a15.18,15.18,0,0,0-5.2,1l-2.36,15.59H316.31V41.24Zm5.67,26-10.27,3.9c-3,2.48-4.61,6-4.61,11,0,6.14,2.72,10,6.61,10A12,12,0,0,0,344.79,80l1.88-1.3Z"/><path class="cls-1" d="M372.08,89.33V87.44l6.26-1V37.58L372,38.64l-.24-2,21.15-4.49h2V44.43l20.79-12.88c6.15,0,8.87,1.42,10.87,3.43,2.72,2.83,3.31,5.43,3.31,13.82V86.49l6.86,1v1.89H408.23V87.44l4.49-1V48.21c0-5.08-1.89-7.09-5.43-7.09s-5.79,1.42-9.22,3.43l-3.19,2V86.49l4.49,1v1.89Z"/><path class="cls-1" d="M438.48,64.16c0-15.83,7.2-28.83,25.75-32.61a21.6,21.6,0,0,1,11.94,3.19V9.93l-6.15.83-.23-2.13,21-3.43h1.77V74.44c0,4.61.35,6.73,1.65,10.16l6-.35.35,1.89-20.79,4.25-3.31-11.46L461.28,91.1C448.4,91.1,438.48,79.64,438.48,64.16Zm29.06,16.66c2.6,0,3.78-.59,7-2.72l1.66-1.18V38.05a8.48,8.48,0,0,0-6.5-3c-9,.12-13,9.22-13,23C456.67,71.37,460.57,80.82,467.54,80.82Z"/><path class="cls-1" d="M502.87,89.33V87.44l6.14-1V9.93l-6,.83-.36-2.13,21-3.43h1.89V86.49l6.26,1v1.89Z"/><path class="cls-1" d="M533.94,89.33V87.44l6.26-1V37.58l-6.38,1.06-.23-2,21.15-4.49h2V86.49l6.27,1v1.89Zm8-82.47L552.49,6l4,.83.59,7.56-1.3,7.09-10.63.82-3.67-.82-.82-8.15Z"/><path class="cls-1" d="M565.72,89.33V87.44l6.26-1V37.58l-6.38,1.06-.23-2,21.15-4.49h2V44.43l20.8-12.88c6.14,0,8.86,1.42,10.87,3.43,2.72,2.83,3.31,5.43,3.31,13.82V86.49l6.85,1v1.89H601.88V87.44l4.49-1V48.21c0-5.08-1.9-7.09-5.44-7.09s-5.79,1.42-9.22,3.43l-3.19,2V86.49l4.49,1v1.89Z"/><path class="cls-1" d="M638.38,74l10.75-.83L653,74l1,8.15-1.54,7.21-10.75.82-3.9-.82L637,80.94Z"/></svg>