<svg id="Layer_1" data-name="Layer 1" xmlns="http://www.w3.org/2000/svg" viewBox="0 0 387 199"><defs><style>.cls-1{fill:#24373b;}</style></defs><title>Colin-Branding</title><path class="cls-1" d="M37.79,36A6.46,6.46,0,0,0,35,35.37c-5.67,0-12,5.09-12,19.26,0,14.54,8,25.05,19.84,25.05,5.2,0,8.51-1.18,12.88-4l.59,1.18c-7.09,7-12.28,10.87-20.55,15.13C20,92,8.14,81.45,8.14,64.79c0-18.9,14.29-29.53,29.89-32.37,5.55,0,12.52,2.84,17.25,6.38v13H41.93Z"/><path class="cls-1" d="M59.06,63.61c0-19.49,13.82-27,30.83-31.19,15.25,0,26.47,11.46,26.47,28.24,0,19.49-13.7,27.29-30.95,31.31C70.4,92,59.06,80.51,59.06,63.61Zm17.6-4.84c0,19.49,5.55,30,12.41,30,6.14,0,9.69-7.33,9.69-22.92,0-20.32-5.68-30.13-12.41-30.13C80.21,35.73,76.66,42.82,76.66,58.77Z"/><path class="cls-1" d="M120.14,90.2V88.3l6.14-.94V10.8l-6,.83L119.9,9.5l21-3.43h1.89V87.36l6.26.94v1.9Z"/><path class="cls-1" d="M151.21,90.2V88.3l6.26-.94V38.45l-6.38,1.06-.23-2L172,33h2V87.36l6.26.94v1.9Zm8-82.47,10.52-.83,4,.83.59,7.56-1.3,7.09-10.64.83-3.66-.83-.83-8.15Z"/><path class="cls-1" d="M183,90.2V88.3l6.26-.94V38.45l-6.38,1.06-.23-2L203.79,33h2V45.3l20.8-12.88c6.14,0,8.86,1.42,10.87,3.43,2.71,2.83,3.31,5.43,3.31,13.82V87.36l6.85.94v1.9H219.14V88.3l4.49-.94V49.08c0-5.08-1.89-7.09-5.43-7.09s-5.79,1.42-9.22,3.43l-3.19,2V87.36l4.49.94v1.9Z"/><path class="cls-1" d="M37.44,141.3a11.29,11.29,0,0,0-9-3.66c-4.14,0-7.21,2.6-7.21,6.49,0,4.14,2.72,6.39,8.51,10.17L41.34,162c6.38,4,8.86,7.91,8.74,13.94,0,8.39-6.26,15.59-20.91,19a50.64,50.64,0,0,1-20.68-4.49v-17.6h2l7.21,13.94c3.54,3.31,6.38,5.31,11,5.31,5.55,0,8.62-3.31,8.62-6.85,0-4.61-2.6-6.5-8.51-10.4l-11.46-7.68c-4.84-3.19-9.21-7-9.21-14.29,0-8.15,6.85-14.53,20.67-17.72,8.75,0,13.24,1.3,18.79,3.89v16.43H45.71Z"/><path class="cls-1" d="M78,135.16c11.23,0,15.48,1.18,18.91,4.37,2.71,2.48,4,6.61,4,13.11v25.52a37.8,37.8,0,0,0,1.54,10.28l5.43-.59.24,1.89L86.94,194l-2.83-9.68L67.92,194.7c-9.33,0-16.9-4.84-16.9-14.65a15.15,15.15,0,0,1,6.5-13l26.11-7.8V148.63c0-6-.47-9.69-7.32-9.69a15.14,15.14,0,0,0-5.2.94l-2.36,15.6H53.27V144.84Zm5.67,26-10.28,3.9c-2.95,2.48-4.6,6-4.6,11,0,6.14,2.71,10,6.61,10a11.91,11.91,0,0,0,6.38-2.48l1.89-1.3Z"/><path class="cls-1" d="M107.38,192.93V191l6.26-.94V141.18l-6.38,1.06-.23-2,21.14-4.49h2V148L151,135.16c6.14,0,8.86,1.41,10.87,3.42,2.71,2.84,3.3,5.44,3.3,13.83V190.1L172,191v1.89H143.53V191l4.49-.94V151.81c0-5.08-1.89-7.08-5.43-7.08s-5.79,1.41-9.22,3.42l-3.19,2V190.1l4.49.94v1.89Z"/><path class="cls-1" d="M172.12,167.77c0-15.84,7.21-28.83,25.76-32.61a21.46,21.46,0,0,1,11.93,3.19V113.54l-6.14.82-.24-2.13,21-3.42h1.77V178c0,4.61.36,6.74,1.66,10.17l6-.36.36,1.89L213.47,194l-3.3-11.46L194.93,194.7C182.05,194.7,172.12,183.24,172.12,167.77Zm29.07,16.65c2.6,0,3.78-.59,7-2.71l1.65-1.18V141.65a8.49,8.49,0,0,0-6.5-3c-9,.12-13,9.22-13,23C190.32,175,194.22,184.42,201.19,184.42Z"/><path class="cls-1" d="M234.86,192.93V191l6.14-.94V113.54l-6,.82-.35-2.13,21-3.42h1.89V190.1l6.26.94v1.89Z"/><path class="cls-1" d="M264.27,192.93V191l6.27-.94V141.18l-6.38,1.06-.24-2,21.15-4.49h2V190.1l6.26.94v1.89Zm8-82.47,10.51-.82,4,.82.59,7.56-1.3,7.09-10.63.83-3.67-.83L271,117Z"/><path class="cls-1" d="M294.4,192.93V191l6.26-.94V141.18l-6.38,1.06-.23-2,21.15-4.49h2V148L338,135.16c6.14,0,8.86,1.41,10.87,3.42,2.71,2.84,3.31,5.44,3.31,13.83V190.1L359,191v1.89H330.55V191l4.49-.94V151.81c0-5.08-1.89-7.08-5.43-7.08s-5.79,1.41-9.22,3.42l-3.19,2V190.1l4.49.94v1.89Z"/><path class="cls-1" d="M365.41,177.57l10.75-.83,3.9.83.94,8.15-1.53,7.21-10.76.83-3.89-.83-.83-8.39Z"/></svg>