<svg id="Layer_1" data-name="Layer 1" xmlns="http://www.w3.org/2000/svg" viewBox="0 0 216 30"><defs><style>.cls-1{fill:#2f3b44;}</style></defs><title>DesignPortfolioLogo-01</title><path class="cls-1" d="M0,21.92v-.05L2,20a1,1,0,0,0,.27-.71V3.84A1,1,0,0,0,2,3.13L0,1.27V1.21H9.82q5,0,7.6,2.64A9.91,9.91,0,0,1,20,11.11q0,5.13-2.81,8c-1.88,1.9-4.52,2.84-7.94,2.84Zm8.19-.59h.62a4.12,4.12,0,0,0,4-2.43c.8-1.62,1.19-4.08,1.19-7.38a17.68,17.68,0,0,0-1.16-7.3A4,4,0,0,0,9,1.8H8.05a.56.56,0,0,0-.41.11.75.75,0,0,0-.09.45V20.75c0,.27,0,.44.1.5A1,1,0,0,0,8.17,21.33Z"/><path class="cls-1" d="M35.18,14H26.35V14a6,6,0,0,0,1.17,4,3.88,3.88,0,0,0,3,1.34A4.65,4.65,0,0,0,35,16.71h.05Q34,22.16,28.58,22.16a7.35,7.35,0,0,1-5.12-1.89,7,7,0,0,1-2.09-5.53c0-2.58.69-4.49,2.09-5.75a7.59,7.59,0,0,1,5.3-1.88,8,8,0,0,1,2.33.32,7.22,7.22,0,0,1,2.05,1,4.63,4.63,0,0,1,1.51,1.93,7.11,7.11,0,0,1,.56,3C35.21,13.52,35.2,13.73,35.18,14ZM28.7,7.67A1.89,1.89,0,0,0,27,9a12.11,12.11,0,0,0-.61,4.43h4.33c0-.26,0-.55,0-.88a9.85,9.85,0,0,0-.52-3.82A1.6,1.6,0,0,0,28.7,7.67Z"/><path class="cls-1" d="M44.64,19.48A1.67,1.67,0,0,0,44,18.12a10.92,10.92,0,0,0-2.22-1.23l-2-1A4.4,4.4,0,0,1,37,11.76a4.1,4.1,0,0,1,1.62-3.39A7,7,0,0,1,43,7.11a17.51,17.51,0,0,1,5.18.79l-1.65,4.27h-.06L44.17,8.08a.78.78,0,0,0-.68-.44h-.41a2.65,2.65,0,0,0-1.71.53,1.82,1.82,0,0,0-.68,1.53,1.86,1.86,0,0,0,.63,1.47,8.83,8.83,0,0,0,2.08,1.21l1.89.82a7.21,7.21,0,0,1,2.43,1.59,3.53,3.53,0,0,1,.84,2.48,4.18,4.18,0,0,1-1.8,3.61A8.15,8.15,0,0,1,42,22.16a16.15,16.15,0,0,1-5.42-.91l1.62-4.57h.06l2.35,4.57a.64.64,0,0,0,.62.38h.68a3.21,3.21,0,0,0,2-.59A1.88,1.88,0,0,0,44.64,19.48Z"/><path class="cls-1" d="M49.71,7.34h6.54V19.8a.89.89,0,0,0,.26.71L58,21.87v.05H49.71v-.05l1.44-1.36a.89.89,0,0,0,.26-.71V9.61a1.06,1.06,0,0,0-.26-.74L49.71,7.4Zm4-1.62a2.44,2.44,0,0,1-1.66-.6,2,2,0,0,1-.69-1.58,2.14,2.14,0,0,1,.69-1.66,2.38,2.38,0,0,1,1.66-.64,2.41,2.41,0,0,1,1.71.64,2.16,2.16,0,0,1,.68,1.66,2,2,0,0,1-.68,1.58A2.48,2.48,0,0,1,53.74,5.72Z"/><path class="cls-1" d="M59.25,12A4.21,4.21,0,0,1,61,8.34a7.79,7.79,0,0,1,4.59-1.23,8.53,8.53,0,0,1,4,.82.47.47,0,0,0,.62-.15L73.3,4.54l.06,0V9H70.59a3.9,3.9,0,0,1,1.5,3.18,3.83,3.83,0,0,1-1.75,3.46,8.45,8.45,0,0,1-4.67,1.14,10,10,0,0,1-2.38-.24c-.61.24-.92.6-.92,1.09,0,.87,1,1.3,3,1.3h2.74c3.51,0,5.27,1.3,5.27,3.92A5.15,5.15,0,0,1,71,27.2a10,10,0,0,1-6,1.68,10.56,10.56,0,0,1-4.22-.78C59.65,27.58,59,26.84,59,25.9a2.14,2.14,0,0,1,.84-1.66,5.07,5.07,0,0,1,2.58-1,4.58,4.58,0,0,1-2.37-1.18,2.8,2.8,0,0,1-.84-2,3,3,0,0,1,1-2.24A5.93,5.93,0,0,1,63,16.44C60.49,15.82,59.25,14.33,59.25,12Zm4.51,11.4c-.45,0-.8-.08-1-.12a2.12,2.12,0,0,0-1.18,1.88,2.55,2.55,0,0,0,1.35,2.26,5.94,5.94,0,0,0,3.18.84,6,6,0,0,0,3-.74,2.3,2.3,0,0,0,1.29-2.09A1.64,1.64,0,0,0,69.78,24a4.09,4.09,0,0,0-2.19-.53Zm0-11.49a8.47,8.47,0,0,0,.47,3.36,1.5,1.5,0,0,0,2.83,0,8.51,8.51,0,0,0,.47-3.34,8.6,8.6,0,0,0-.46-3.33,1.49,1.49,0,0,0-1.43-1,1.51,1.51,0,0,0-1.43,1A8.74,8.74,0,0,0,63.79,11.91Z"/><path class="cls-1" d="M90.12,13.32c0,.71,0,1.88,0,3.52s0,2.63,0,3a1,1,0,0,0,.27.71l1.47,1.36v.05H83.49v-.05l1.42-1.36a.9.9,0,0,0,.26-.68c0-.06,0-.91,0-2.55s0-2.73,0-3.28a9.12,9.12,0,0,0-.47-3.33A1.74,1.74,0,0,0,83,9.55a2.58,2.58,0,0,0-2.18,1.3v9a.89.89,0,0,0,.27.71l1.44,1.36v.05H74.3v-.05l1.45-1.36A.92.92,0,0,0,76,19.8V9.61a1.11,1.11,0,0,0-.26-.74L74.3,7.4V7.34h6.54v3.12a4.62,4.62,0,0,1,4.69-3.35,4,4,0,0,1,3.4,1.59A7.58,7.58,0,0,1,90.12,13.32Z"/><path class="cls-1" d="M107.56,14.23h-1.91V19.1a.87.87,0,0,0,.32.73l2.77,2v.05H98.08v-.05l2-1.86a.94.94,0,0,0,.26-.71V3.84a.94.94,0,0,0-.26-.71l-2-1.86V1.21H108.3a12.94,12.94,0,0,1,3,.33,9.12,9.12,0,0,1,2.55,1,4.87,4.87,0,0,1,1.84,2,6.25,6.25,0,0,1,.66,3A5.85,5.85,0,0,1,114,12.53,10.81,10.81,0,0,1,107.56,14.23ZM105.65,2.36V13.65H107A3.15,3.15,0,0,0,109.79,12a8.36,8.36,0,0,0,1-4.42,8.4,8.4,0,0,0-.92-4.23A2.87,2.87,0,0,0,107.3,1.8h-1.12c-.24,0-.39,0-.44.11A.75.75,0,0,0,105.65,2.36Z"/><path class="cls-1" d="M124.38,22.16a8,8,0,0,1-5.67-1.93,7.31,7.31,0,0,1-2.07-5.61,7.21,7.21,0,0,1,2.09-5.57,8,8,0,0,1,5.65-1.94A8.06,8.06,0,0,1,130.07,9a7.25,7.25,0,0,1,2.09,5.61,7.16,7.16,0,0,1-2.11,5.56A8,8,0,0,1,124.38,22.16Zm1.8-13c-.39-1-1-1.48-1.8-1.48a1.93,1.93,0,0,0-1.79,1.45,16.81,16.81,0,0,0-.59,5.5,17.09,17.09,0,0,0,.59,5.51c.39,1,1,1.5,1.79,1.5a1.94,1.94,0,0,0,1.8-1.47,17.22,17.22,0,0,0,.59-5.51A17.27,17.27,0,0,0,126.18,9.15Z"/><path class="cls-1" d="M145.56,8.08l-1.62,4.62h-.06l-2.32-2.77c-.18-.21-.36-.26-.53-.14a5.17,5.17,0,0,0-1.27,1.71v8a.89.89,0,0,0,.44.74l2.89,1.68v.05h-9.87v-.05l1.44-1.36a.89.89,0,0,0,.27-.71V9.61a1.07,1.07,0,0,0-.27-.74L133.22,7.4V7.34h6.54v3.77a6.76,6.76,0,0,1,1.39-2.87,3,3,0,0,1,2.41-1.13A2.36,2.36,0,0,1,145.56,8.08Z"/><path class="cls-1" d="M155.43,7.34v.59h-3.62v9.84a2.57,2.57,0,0,0,.41,1.55,1.37,1.37,0,0,0,1.15.54,1.84,1.84,0,0,0,1.71-1.09l.06,0a4.33,4.33,0,0,1-1.31,2.39,4.24,4.24,0,0,1-3,1c-2.56,0-3.83-1.35-3.83-4V7.93h-1.62V7.34h1.32a1.18,1.18,0,0,0,.91-.32l4.13-4.63h.06V7.34Z"/><path class="cls-1" d="M165.86,7.93h-3.59v11.7a.84.84,0,0,0,.07.41,1.44,1.44,0,0,0,.37.32l2.18,1.51v.05h-9.13v-.05l1.44-1.36a.94.94,0,0,0,.26-.71V7.93H155.9V7.34h1.56c0-2.26.49-3.89,1.45-4.9A5.58,5.58,0,0,1,163.15.92a17.56,17.56,0,0,1,4.65.65L166,6h-.06l-2.06-4.16a.86.86,0,0,0-.21-.32.55.55,0,0,0-.29-.06c-.71,0-1.06.91-1.06,2.74V7.34h3.59Z"/><path class="cls-1" d="M173.31,22.16a8,8,0,0,1-5.67-1.93,7.31,7.31,0,0,1-2.07-5.61,7.21,7.21,0,0,1,2.09-5.57,8,8,0,0,1,5.65-1.94A8.06,8.06,0,0,1,179,9a7.25,7.25,0,0,1,2.09,5.61A7.16,7.16,0,0,1,179,20.21,8,8,0,0,1,173.31,22.16Zm1.8-13c-.39-1-1-1.48-1.8-1.48a1.93,1.93,0,0,0-1.79,1.45,16.81,16.81,0,0,0-.59,5.5,17.09,17.09,0,0,0,.59,5.51c.39,1,1,1.5,1.79,1.5a1.94,1.94,0,0,0,1.8-1.47,17.22,17.22,0,0,0,.59-5.51A17.27,17.27,0,0,0,175.11,9.15Z"/><path class="cls-1" d="M188.22.45V19.8a.93.93,0,0,0,.29.71L190,21.87v.05h-8.25v-.05l1.44-1.36a1,1,0,0,0,.27-.71V3.36a1,1,0,0,0-.27-.73l-1.44-1.36V1.21Z"/><path class="cls-1" d="M190.81,7.34h6.54V19.8a.89.89,0,0,0,.27.71l1.44,1.36v.05h-8.25v-.05l1.44-1.36a.89.89,0,0,0,.27-.71V9.61a1.07,1.07,0,0,0-.27-.74L190.81,7.4Zm4-1.62a2.46,2.46,0,0,1-1.67-.6,2,2,0,0,1-.69-1.58,2.14,2.14,0,0,1,.69-1.66,2.4,2.4,0,0,1,1.67-.64,2.43,2.43,0,0,1,1.71.64,2.16,2.16,0,0,1,.67,1.66,2,2,0,0,1-.67,1.58A2.5,2.5,0,0,1,194.85,5.72Z"/><path class="cls-1" d="M207.57,22.16a8,8,0,0,1-5.67-1.93,7.31,7.31,0,0,1-2.07-5.61,7.21,7.21,0,0,1,2.09-5.57,8,8,0,0,1,5.65-1.94A8,8,0,0,1,213.26,9a7.25,7.25,0,0,1,2.09,5.61,7.19,7.19,0,0,1-2.1,5.56A8,8,0,0,1,207.57,22.16Zm1.8-13c-.39-1-1-1.48-1.8-1.48a1.93,1.93,0,0,0-1.79,1.45,16.81,16.81,0,0,0-.59,5.5,17.09,17.09,0,0,0,.59,5.51c.39,1,1,1.5,1.79,1.5a1.94,1.94,0,0,0,1.8-1.47,17.22,17.22,0,0,0,.59-5.51A17.27,17.27,0,0,0,209.37,9.15Z"/></svg>