<svg id="Layer_1" data-name="Layer 1" xmlns="http://www.w3.org/2000/svg" viewBox="0 0 216 216"><defs><style>.cls-1{fill:#aeaeae;}</style></defs><title>here</title><path class="cls-1" d="M165.37,47.41l-9.76,9.52c-4.25-4.38-4.66-8.32-1-11.62C157.79,42.42,161.86,43.24,165.37,47.41ZM216,0V216H0V0ZM192.52,61.19l-8-5.37a26.89,26.89,0,0,1-2.26,3.08c-2.75,2.8-5.32,5.9-8.46,8.17-3.33,2.41-7.35,1.26-9.87-2.27l20.91-20.71c-2.85-2.73-5.37-5.56-8.3-7.87-7.29-5.74-15.37-7.75-23.86-3-8.83,5-14.24,12.28-13.48,23,0,.72,0,1.45,0,2.51L133.13,52C127,57,125.59,63,129,70.58l-6.88-5.69L111.58,75.34,122.3,85.5c-10.2-5.4-19.33-3.93-27.46,4s-9.43,17.28-4.71,27.77c-6.19-4.13-12.39-5.84-19.07-2.4-6.33,3.26-9.84,8.56-10.46,16.51L40.46,111.18,29.71,121.82c.39.44.85,1,1.35,1.48q18.39,18.45,36.78,36.91a28.57,28.57,0,0,1,1.85,2.24H24.09a9.12,9.12,0,0,0,.78,1.44c6.86,6.88,13.74,13.74,20.58,20.65,1.06,1.07,1.8.73,2.69-.18,2.83-2.89,5.73-5.72,8.57-8.61q6.51-6.63,13-13.3H91.81c-1-1.09-1.52-1.75-2.12-2.35-4.32-4.34-8.77-8.55-12.91-13a37.5,37.5,0,0,1-5.4-7.65c-1.41-2.64-.36-5.52,2.13-7.71,2-1.76,4.25-2,6.95-.23a39.31,39.31,0,0,1,5.92,4.66c4.86,4.69,9.58,9.52,14.36,14.28.67.68,1.38,1.32,1.74,1.67l11-11-10.3-9.85.4-.6c1,.31,2,.57,2.9,1a19.75,19.75,0,0,0,12.41,1.31c10.29-2.52,16.8-9.58,21.58-18.54a2.1,2.1,0,0,0-.51-1.94c-2.29-1.69-4.69-3.2-7.16-4.85a26.58,26.58,0,0,1-2.2,3.06c-2.74,2.81-5.27,5.94-8.43,8.19-3.43,2.45-6.93,1.46-9.59-1.6,6.94-6.9,13.86-13.78,21.2-21.06l12.07,12.4,11.36-11.35c-4.74-4.72-9.74-9.64-14.66-14.65a27.82,27.82,0,0,1-4.08-5A10.21,10.21,0,0,1,141.37,64c.47.77.92,1.53,1.4,2.28,4.23,6.65,9.77,11.79,17.39,14.21C172.27,84.36,188.85,74.47,192.52,61.19ZM103,96.93c-3.71,3.31-3.42,6.79,1,11.83l9.78-9.67C110,94.85,106.22,94.06,103,96.93Z"/></svg>