<?xml version="1.0" encoding="utf-8"?>
<!-- Generator: Adobe Illustrator 23.0.4, SVG Export Plug-In . SVG Version: 6.00 Build 0)  -->
<svg version="1.1" id="Layer_1" xmlns="http://www.w3.org/2000/svg" xmlns:xlink="http://www.w3.org/1999/xlink" x="0px" y="0px"
	 viewBox="0 0 216 216" style="enable-background:new 0 0 216 216;" xml:space="preserve">
<style type="text/css">
	.st0{fill:#aeaeae;}
</style>
<path class="st0" d="M214.5,134.5l2-4c0,0-26,21-32,22c-4.6,0.8-9.8-0.2-17.3-1.6c11.8-21,15.5-46.1,14.8-70.5
	c-0.2-8.1-0.9-16-1.9-23.8c-1.2-9.2-3-18.3-5.4-27.3c-1.2-4.5-2.5-8.9-4.1-13.3c-0.8-2.3-2.5-8-4.4-9.6c-3.4-2.8-16.8,11-19.4,12.7
	C139.7,24,132.3,28.4,125,33c-11.9,7.6-22.6,16.5-31.6,27.3c-9.9,11.9-17.7,25.5-23,40c-0.5,1.2-0.9,2.5-1.2,3.8
	c-5.9,19.8-4.2,56.2,21,61.6c-0.2,0.1-0.3,0.2-0.5,0.3c-1.1-0.5-2.3-1-3.7-1.5c-8.6-3.1-13.4-8.9-13.4-8.9C57,132,64,105,64,105
	s-5.5-4.5-13.5-7.5s-27-13-27-13s0,0-1,15s-1,32,6,56c6.3,21.5,26.9,27.7,31.2,28.8c-1.5,1-2.7,1.8-3.2,2.2c-4,3-26,13-32,17
	s-24,1-24,1v5c0,0,14,1,19,2s6-3,10-5s6-2,11-5s26-16,39-23c2.5-1.4,5.8-2.9,9.6-4.6c5.2-1.2,9.2-1.8,9.2-1.8
	c2,3.2,4.9,6.9,12.7,8.9c20.2,5.4,38.7-4.9,50.4-21.1c1.2-1.7,2.4-3.4,3.4-5.1c4.2-0.3,5.5-0.3,7.6-0.3c4,0,24,0,24,0s-1-3-2-5
	S214.5,134.5,214.5,134.5z M163.5,16.5l-61.7,144.3c-1.7,0.4-2.9,0.7-3.3,0.7c-0.6,0-2.7,1-5.6,2.5L163.5,16.5z M36,108
	c0,0,31.1,60.6,39.4,66.4c-0.8,0.5-1.7,1-2.5,1.6C69.1,169.9,42.5,127.5,36,108z M96.8,170.6c0.2-0.1,0.3-0.1,0.5-0.2
	c0.3,0.5,0.6,1.1,1,1.6C98.2,172,97.7,171.4,96.8,170.6z"/>
</svg>
