<svg id="Layer_1" data-name="Layer 1" xmlns="http://www.w3.org/2000/svg" viewBox="0 0 216 216"><defs><style>.cls-1{fill:#aeaeae;}</style></defs><title>SQL</title><path class="cls-1" d="M61.14,189c-6.54-.95-12.61-1.62-18.6-2.75-10.5-2-20.6-5.15-29.77-10.87C5.56,170.84,1.94,164.93,2,155.93c.34-40.89.21-81.79.09-122.69A17,17,0,0,1,8.84,19.07c8.6-6.91,18.75-10.36,29.28-12.63C64.05.88,89.85,1.21,115.31,9.22c7.44,2.34,14.46,5.61,20.47,10.75a16.24,16.24,0,0,1,6.16,13.24c-.17,28.25-.11,56.51,0,84.76,0,2.69-.57,3.73-3.51,4.1-16,2.05-28.26,10.08-36.4,24.12-.81,1.39-1.59,2.06-3.36,1.91a34.93,34.93,0,0,0-37.47,31.2C60.89,182.21,61.14,185.18,61.14,189ZM69,43.2c15.2,0,27.41-1,39.19-4.79a40.5,40.5,0,0,0,10-4.82c4.71-3.18,4.77-7.7.12-11a32.56,32.56,0,0,0-9.45-4.67c-23.24-6.85-46.67-6.72-70.09-1.09a44.82,44.82,0,0,0-12.1,5.09c-5.9,3.49-5.74,8.69,0,12.41a32.11,32.11,0,0,0,6.15,3.07C45.46,42.06,58.6,43.1,69,43.2Zm12.45,76.7c1.15-.81,1.93-1.34,2.69-1.9,6.23-4.65,8.94-13.34,6.78-21.7C89,88.86,83.46,84.12,75.4,83A18.66,18.66,0,0,0,54.48,97.65c-2.31,11,2.68,20.53,12.63,23a15.09,15.09,0,0,1,8.16,5.21c1,1.16,2,2.28,3.14,3.34a3.44,3.44,0,0,0,1.88,1.13c4.14.11,8.29.06,12.44.06l.22-.69Zm-57-10.12c0,3.11-.16,5.7.1,8.25a3.31,3.31,0,0,0,2,2.26,27.74,27.74,0,0,0,16.41.24c4.68-1.44,7.78-4.53,8.36-9.55s-1.76-8.51-5.95-10.87c-2.25-1.26-4.77-2.07-6.94-3.43-1-.65-1.55-2.11-2.3-3.21,1.15-.69,2.28-1.93,3.46-2a29.84,29.84,0,0,1,6.45.91,30.17,30.17,0,0,1,3.24,1c0-2.82.1-5.21-.06-7.57A2.45,2.45,0,0,0,47.83,84c-6.07-1.53-12.16-2-17.94,1a10.83,10.83,0,0,0-1.26,18.73,46,46,0,0,0,6.4,3.18c1.8.87,4.16,1.6,3.51,4.15-.69,2.72-3.28,2.38-5.29,2A40.67,40.67,0,0,1,27,111C26.32,110.72,25.67,110.36,24.44,109.78ZM96.91,102c0,5.07.18,10.16-.07,15.22-.15,3,1,3.78,3.78,3.67,4.78-.18,9.58,0,14.37-.06,6.76-.12,6.18,1.41,6-6.69a2.87,2.87,0,0,0-2-2,37.34,37.34,0,0,0-7.17-.07c-2.71.22-3.74-.64-3.63-3.49.2-5.55.06-11.11.06-16.67,0-9,0-8.9-8.87-8.57-1.84.07-2.55.65-2.52,2.53C97,91.29,96.91,96.65,96.91,102Z"/><path class="cls-1" d="M140.9,213.34q-22.26,0-44.52,0c-15.84,0-28.67-11.31-30.51-26.79A30.2,30.2,0,0,1,89,153.69c3.81-.9,8-.62,12-.4,2,.11,3-.22,4-2.12,9.27-19.1,29.84-28.61,50.11-23.29a43.27,43.27,0,0,1,31.86,47.33c-.25,2.07.13,2.69,2.22,3.23,7.67,2,12.58,7,13.7,14.88,1.08,7.57-2,13.77-8.39,17.93a13.71,13.71,0,0,1-7,2C171.92,213.42,156.41,213.34,140.9,213.34Zm39.2-30.06C183.35,173,183.27,163.34,179,154a37.67,37.67,0,0,0-20.83-20,37,37,0,0,0-24.5-1.3c-13.88,4-22.52,13.45-27,26.92-1.61-.44-2.79-.81-4-1.1-10.4-2.58-19.32.21-26.12,8.29s-8,17.35-3.57,26.9,12.24,14.77,22.74,14.83c29.86.2,59.74.09,89.61,0A12.72,12.72,0,0,0,198,194.83a12.93,12.93,0,0,0-14.16-12C182.84,183,181.82,183.1,180.1,183.28Z"/><path class="cls-1" d="M80.16,102.33c-.78,2.31-1.18,4.84-2.42,6.87-2.31,3.81-7.57,3.63-10.08-.06-2.36-3.47-2.4-10.22-.08-13.69,2.7-4,8.33-3.91,10.54.4C79.1,97.74,79.44,100,80.16,102.33Z"/></svg>