<svg id="Layer_1" data-name="Layer 1" xmlns="http://www.w3.org/2000/svg" viewBox="0 0 565.26 164.21"><defs><style>.cls-1{fill:#c7baae;}</style></defs><title>website_logos</title><path class="cls-1" d="M59.31,28.93H35V67.42H57.69V91.87H35v67.77H4.76V3.51H59.31Z"/><path class="cls-1" d="M134.83,39.82v83.43q0,37.89-36.07,37.85-35.7,0-35.66-37.85V39.82q0-37.63,35.66-37.68C122.73,2.14,134.83,14.08,134.83,39.82Zm-30.9-7.26c0-4.12-1.62-6.13-4.92-6.13s-5,2-5,6.13v98.2c0,4.11,1.7,6.13,5,6.13s4.92-2,4.92-6.13Z"/><path class="cls-1" d="M216.17,159.64H185l-4.76-54.54h-6.61v54.54H143.39V3.51h38.73c21.22,0,31.87,11,31.87,30.34V70.56q0,13-6.78,20.82Zm-42.52-77.7h2.82c4.52,0,6.78-3.15,6.78-9.52V37.72c0-5.89-2.26-8.79-6.78-8.79h-2.82Z"/><path class="cls-1" d="M264.18,146.09c-3.15,10.73-8.55,15-19.29,15-14.12,0-23.15-10.49-23.15-31.23V39.82c0-25.82,11.86-37.68,36.39-37.68,22.27,0,34.05,10.41,34.05,30.42V68.22H261.92V32.56c0-4.12-1.69-6.13-5-6.13-3.15,0-4.76,2-4.76,6.13v98.68c0,4.12,1.69,6.13,5.08,6.13,3.15,0,5.16-2.5,5.16-6.29V95.5h-4.76V75.57h34.54v84.07H268.54l-2.83-13.55Z"/><path class="cls-1" d="M331.23,134.23h26.63v25.41H301V3.51h56.4V28.93H331.23V67.42H356V91.54H331.23Z"/><path class="cls-1" d="M446.44,22.47H419.33V69.92h25.09v19H419.33v70.76H397.38V3.51h49.06Z"/><path class="cls-1" d="M461.3,3.51h21.95V159.64H461.3Z"/><path class="cls-1" d="M561.53,3.51v19h-21.3V159.64h-22v-137H496.74V3.51Z"/></svg>