<svg id="Layer_1" data-name="Layer 1" xmlns="http://www.w3.org/2000/svg" viewBox="0 0 801.05 164.21"><defs><style>.cls-1{fill:#21305e;}.cls-2{fill:#1b7abb;}</style></defs><title>website_logos</title><path class="cls-1" d="M75.52,39.82v83.43q0,37.89-36.06,37.85-35.72,0-35.67-37.85V39.82q0-37.63,35.67-37.68C63.42,2.14,75.52,14.08,75.52,39.82Zm-30.9-7.26c0-4.12-1.61-6.13-4.92-6.13s-5,2-5,6.13v98.2c0,4.11,1.69,6.13,5,6.13s4.92-2,4.92-6.13Z"/><path class="cls-1" d="M159.77,159.64H126.92L116.19,89.93h-1.85v69.71H84.08V3.51h30.26V71.05H116L126.92,3.51h31.39l-14.84,74.8Z"/><path class="cls-1" d="M229.32,84.28v44q0,32.91-34.78,32.84-35.7,0-35.66-37.85V39.82q0-37.63,35.91-37.68c22.91,0,34.53,10.25,34.53,32.92V74.19H199.38V32.56c0-4.12-1.61-6.13-4.76-6.13s-4.84,2-4.84,6.13v98c0,4.11,1.7,6.13,5,6.05q4.59,0,4.59-6.05V84.28Z"/><path class="cls-2" d="M317.91,3.51v19h-21.3V159.64h-22v-137H253.12V3.51Z"/><path class="cls-2" d="M390.47,43.94v115.7H368.92l-.16-109.89c0-5.41-2.42-8.07-7.26-8.07-5.25,0-9.36,4-9.36,11V159.64H330.59V2.62h21.55V37.16a27.85,27.85,0,0,1,8.47-10.33,19.39,19.39,0,0,1,12.67-4.2C383.61,22.63,390.47,29.41,390.47,43.94Z"/><path class="cls-2" d="M446.88,24h21.47V159.64h-19l-2.18-13.23a31.68,31.68,0,0,1-8.72,10.25,19.76,19.76,0,0,1-12.75,4.27c-11.45,0-17.18-7.34-17.18-22.1V24H430V133.9c0,5.41,2.42,8.07,7.26,8.07,5.49,0,9.6-4,9.6-11.05Z"/><path class="cls-2" d="M548.33,43.94v115.7H526.78V49.75c0-5.41-2.5-8.07-7.42-8.07-5.24,0-9.36,4-9.36,11V159.64H488.46V24h19l1.94,13.15a30.87,30.87,0,0,1,8.79-10.25,20,20,0,0,1,12.91-4.28C541.47,22.63,548.33,29.41,548.33,43.94Z"/><path class="cls-2" d="M604.59,36V2.62h21.46v157H604.59V146.89c-4.44,9.44-10.82,14.13-19.29,14-11.7,0-19.69-8.07-19.69-25.25V48c0-17.19,8-25.34,19.69-25.34C594.58,22.63,599.5,27.4,604.59,36Zm-17.35,16.7v78.35c0,7.83,2.82,11.7,8.47,11.7,6,0,9-4.2,8.88-12.59V53.38c.08-8.23-2.91-12.35-8.88-12.35C590.14,41,587.32,44.9,587.24,52.73Z"/><path class="cls-2" d="M705.87,54.18V93.4H666.33v36.47c0,8.63,3.23,12.91,9.76,12.91,5.9,0,8.8-3.39,8.8-10.09v-30.9h21v32.44c0,7.9-2.66,14.36-8.07,19.36s-12.67,7.51-21.71,7.51c-20.41,0-31.54-11.54-31.54-31.88V56c0-21.63,11.29-33.41,31.06-33.41Q705.87,22.63,705.87,54.18Zm-39.54-1.61V76.21h18.16V52.57q.12-12.1-8.72-12.1C669.64,40.47,666.33,45.47,666.33,52.57Z"/><path class="cls-2" d="M782.94,45.63v53.5H761.48V51c0-6.54-1.77-9.36-6.62-9.36-5.08,0-9,5.08-9,13.71V159.64H724.28V24h19.05l1.45,13.15a41.28,41.28,0,0,1,9-10.89c3-2.43,7.1-3.64,12.26-3.64C776.17,22.63,782.94,29.74,782.94,45.63Z"/></svg>